<?xml version="1.0" encoding="utf-8"?>
<!-- Generator: Adobe Illustrator 16.0.4, SVG Export Plug-In . SVG Version: 6.00 Build 0)  -->
<!DOCTYPE svg PUBLIC "-//W3C//DTD SVG 1.1//EN" "http://www.w3.org/Graphics/SVG/1.1/DTD/svg11.dtd">
<svg version="1.1" id="Layer_1" xmlns="http://www.w3.org/2000/svg" xmlns:xlink="http://www.w3.org/1999/xlink" x="0px" y="0px"
	 width="588px" height="96.667px" viewBox="-5.161 -6.735 588 96.667" enable-background="new -5.161 -6.735 588 96.667"
	 xml:space="preserve">
<linearGradient id="SVGID_1_" gradientUnits="userSpaceOnUse" x1="413.4429" y1="12.1729" x2="413.4429" y2="98.0303" gradientTransform="matrix(1 0 0 -1 -25 99.0303)">
	<stop  offset="0" style="stop-color:#006CB7"/>
	<stop  offset="0.7435" style="stop-color:#00A5E2"/>
</linearGradient>
<path fill="url(#SVGID_1_)" d="M199.865,23.896c4.634-1.642,9.721-2.646,14.802-2.646c14.261,0,22.357,8.37,22.357,22.357
	c0,13.727-9.101,22.627-21.916,22.627c-2.622,0-5.177-0.543-7.262-1.361v21.985h-7.981V23.896z M214.767,59.431
	c9.176,0,13.985-6.28,13.985-15.902c0-10.646-6.008-15.554-14.356-15.554c-2.375,0-4.345,0.366-6.549,1.006v28.903
	C210.126,58.972,212.138,59.431,214.767,59.431z M266.738,60.699c-3.284,3.082-7.454,5.535-12.808,5.535
	c-7.904,0-13.814-5.179-13.814-13.449c0-5.721,2.898-9.533,7.265-11.634c3.013-1.448,6.451-1.989,10.822-2.175l7.979-0.279v-2.26
	c0-6.087-3.712-8.733-8.892-8.733c-4.905,0-8.635,1.543-11.723,3.364l-2.826-5.527c5.009-3.006,10.452-4.291,15.555-4.291
	c9.72,0,15.882,4.638,15.882,14.994v15.63c0,7.362,0.272,11.27,0.831,13.451h-6.915L266.738,60.699z M259.188,44.709
	c-3.438,0.083-5.701,0.625-7.54,1.544c-2.181,1.266-3.338,3.438-3.338,6.086c0,4.445,2.896,7.352,7.516,7.352
	c4.925,0,8.536-2.995,10.356-4.898V44.438L259.188,44.709z M279.82,23.896c4.642-1.642,9.721-2.646,14.826-2.646
	c14.256,0,22.354,8.37,22.354,22.357c0,13.727-9.103,22.627-21.916,22.627c-2.629,0-5.179-0.543-7.264-1.361v21.985h-8.001
	L279.82,23.896L279.82,23.896z M294.72,59.431c9.197,0,14.01-6.28,14.01-15.902c0-10.646-6.009-15.554-14.379-15.554
	c-2.357,0-4.346,0.366-6.529,1.006v28.903C290.101,58.972,292.093,59.431,294.72,59.431z M320.392,43.529
	c0-13.103,7.166-22.279,18.161-22.279c11.271,0,17.813,8.638,17.813,22.357v2.008H328.56c0.197,8.077,5.104,14.076,13.626,14.076
	c4.095,0,7.636-1.264,10.653-2.904l2.521,5.545c-3.995,2.541-9.252,3.902-14.157,3.902
	C326.921,66.234,320.392,55.791,320.392,43.529z M348.117,39.605c-0.195-5.988-3.109-11.979-9.563-11.979
	c-6.161,0-9.892,5.449-9.992,11.979H348.117z M361.916,22.352h6.723l0.91,5.274c4.531-4.83,8.191-6.376,12.094-6.376
	c1.82,0,3.811,0.463,5.084,1.284l-2.818,7.085c-1.371-0.733-2.729-1.085-4.076-1.085c-3.098,0-5.918,1.625-9.918,5.537v31.255
	h-7.996V22.352H361.916z M388.796,22.352h8.277l9.815,32.61h0.194l9.619-32.61h6.99l9.994,32.71h0.195l9.621-32.71h8.092
	l-14.818,43.243h-6.537l-9.906-32.713h-0.17l-10.012,32.713h-6.8L388.796,22.352z M456.505,1h8v26.53
	c4.271-3.635,9.076-6.28,14.627-6.28c6.73,0,13.076,3.998,13.076,15.275v28.801h-7.996V39.162c0-6.087-1.543-10.821-7.436-10.821
	c-4.371,0-8.545,2.549-12.271,5.818v31.167h-8V1z M497.197,8.365c0-2.825,2.107-5.103,5.107-5.103c3.09,0,5.273,2.184,5.273,5.103
	c0,2.899-2.279,5.176-5.273,5.176C499.304,13.541,497.197,11.264,497.197,8.365z M498.181,22.352h8v42.974h-8V22.352z
	 M519.507,55.703V28.806h-7.359v-6.454h7.359v-9.817l8.004-2.55v12.368h12.896l-2.172,6.454h-10.725V54.16
	c0,3.803,1.529,5.447,4.375,5.447c2.717,0,5.17-1.18,6.893-2.271l2.631,5.535c-2.822,2.004-7.074,3.364-11.344,3.364
	C523.419,66.234,519.507,62.427,519.507,55.703z M541.035,43.529c0-13.103,7.191-22.279,18.182-22.279
	c11.27,0,17.803,8.638,17.803,22.357v2.008h-27.785c0.176,8.077,5.084,14.076,13.615,14.076c4.078,0,7.637-1.264,10.631-2.904
	l2.553,5.545c-4.002,2.541-9.277,3.902-14.186,3.902C547.591,66.234,541.035,55.791,541.035,43.529z M568.742,39.605
	c-0.166-5.988-3.088-11.979-9.525-11.979c-6.18,0-9.906,5.449-9.982,11.979H568.742z"/>
<g>
	<path fill="#231F20" d="M1.02,1h7.979v36.798H9.18l15.505-15.497h9.425L15.706,40.615l20.21,24.562h-9.513L9.179,43.869h-0.18
		v21.308H1.02V1z"/>
	<path fill="#231F20" d="M37.1,8.342c0-2.811,2.083-5.081,5.075-5.081c3.086,0,5.261,2.184,5.261,5.081c0,2.9-2.269,5.17-5.261,5.17
		C39.183,13.513,37.1,11.242,37.1,8.342z M38.272,22.302h7.979v42.875h-7.979V22.302z"/>
	<path fill="#231F20" d="M51.876,22.302h6.793l0.91,5.26c4.626-3.816,9.426-6.346,14.861-6.346c6.802,0,13.054,3.989,13.054,15.231
		v28.73h-7.973V39.069c0-6.071-1.452-10.785-7.35-10.785c-4.344,0-8.515,2.539-12.315,5.797v31.096h-7.979L51.876,22.302
		L51.876,22.302z"/>
	<path fill="#231F20" d="M91.036,44.23c0-13.768,9.874-23.014,22.651-23.014c2.178,0,4.542,0.182,6.716,0.812V1h7.972v62.085
		c-3.354,1.813-8.882,2.996-14.317,2.996C101.271,66.082,91.036,58.554,91.036,44.23z M120.403,58.289V28.922
		c-2.002-0.639-3.536-1-6.253-1c-8.253,0-14.874,5.797-14.874,16.135c0,9.424,5.716,15.221,14.96,15.221
		C116.232,59.279,118.768,59.009,120.403,58.289z"/>
	<path fill="#231F20" d="M134.273,1h7.98v53.478c0,3.268,0.997,4.266,3.258,4.266c0.629,0,1.9-0.271,2.623-0.551l1.635,6.254
		c-1.996,0.817-4.526,1.271-6.615,1.271c-5.976,0-8.881-3.258-8.881-8.969V1L134.273,1z"/>
	<path fill="#231F20" d="M150.226,43.421c0-13.055,7.161-22.206,18.134-22.206c11.239,0,17.767,8.61,17.767,22.299v1.995h-27.741
		c0.173,8.059,5.075,14.043,13.602,14.043c4.075,0,7.611-1.266,10.603-2.905l2.536,5.537c-3.989,2.536-9.249,3.896-14.136,3.896
		C156.75,66.082,150.226,55.658,150.226,43.421z M177.871,39.516c-0.172-5.976-3.079-11.954-9.511-11.954
		c-6.157,0-9.887,5.436-9.974,11.954H177.871z"/>
</g>
</svg>
