<?xml version="1.0" encoding="utf-8"?>
<!-- Generator: Adobe Illustrator 16.0.4, SVG Export Plug-In . SVG Version: 6.00 Build 0)  -->
<!DOCTYPE svg PUBLIC "-//W3C//DTD SVG 1.1//EN" "http://www.w3.org/Graphics/SVG/1.1/DTD/svg11.dtd">
<svg version="1.1" id="Layer_1" xmlns="http://www.w3.org/2000/svg" xmlns:xlink="http://www.w3.org/1999/xlink" x="0px" y="0px"
	 width="516.315px" height="195.789px" viewBox="0 0 516.315 195.789" enable-background="new 0 0 516.315 195.789"
	 xml:space="preserve">
<g>
	<path fill="#231F20" d="M7,5.125h13.2v60.894h0.297l25.647-25.646h15.603L31.297,70.67l33.452,40.647H49L20.497,76.069H20.2v35.248
		H7V5.125z"/>
	<path fill="#231F20" d="M66.696,17.274c0-4.649,3.455-8.399,8.406-8.399c5.096,0,8.696,3.599,8.696,8.399
		c0,4.799-3.75,8.548-8.696,8.548C70.151,25.822,66.696,22.074,66.696,17.274z M68.648,40.373h13.197v70.944H68.648V40.373z"/>
	<path fill="#231F20" d="M91.146,40.373h11.253l1.496,8.696c7.653-6.298,15.601-10.497,24.596-10.497c11.253,0,21.6,6.6,21.6,25.197
		v47.547h-13.195V68.121c0-10.051-2.399-17.849-12.152-17.849c-7.198,0-14.098,4.198-20.392,9.599v51.446H91.146V40.373z"/>
	<path fill="#231F20" d="M155.946,76.668c0-22.797,16.354-38.095,37.497-38.095c3.6,0,7.501,0.298,11.098,1.35V5.125h13.199V107.87
		c-5.546,2.997-14.7,4.945-23.697,4.945C172.896,112.815,155.946,100.365,155.946,76.668z M204.541,99.915V51.32
		c-3.297-1.048-5.846-1.647-10.346-1.647c-13.648,0-24.602,9.596-24.602,26.696c0,15.601,9.45,25.202,24.749,25.202
		C197.643,101.57,201.845,101.118,204.541,99.915z"/>
	<path fill="#231F20" d="M227.499,5.125h13.195v88.492c0,5.402,1.654,7.051,5.401,7.051c1.052,0,3.146-0.448,4.35-0.9l2.702,10.351
		c-3.297,1.351-7.5,2.1-10.952,2.1c-9.894,0-14.696-5.399-14.696-14.854V5.125z"/>
	<path fill="#231F20" d="M253.894,75.319c0-21.598,11.852-36.746,30.01-36.746c18.602,0,29.4,14.249,29.4,36.899v3.296h-45.905
		c0.29,13.349,8.404,23.253,22.511,23.253c6.746,0,12.596-2.105,17.549-4.803l4.191,9.155c-6.595,4.196-15.293,6.443-23.395,6.443
		C264.693,112.815,253.894,95.567,253.894,75.319z M299.652,68.868c-0.299-9.897-5.097-19.798-15.748-19.798
		c-10.2,0-16.357,9-16.505,19.798H299.652z"/>
</g>
<g>
	<linearGradient id="SVGID_1_" gradientUnits="userSpaceOnUse" x1="111.4326" y1="184.7637" x2="111.4326" y2="138.8496">
		<stop  offset="0" style="stop-color:#006CB7"/>
		<stop  offset="1" style="stop-color:#00A5E2"/>
	</linearGradient>
	<path fill="url(#SVGID_1_)" d="M90.633,126.102c4.938-1.713,10.83-2.854,17.002-2.854c16.147,0,24.598,9.119,24.598,23.462
		c0,13.773-9.305,23.558-23.365,23.558c-2.372,0-4.745-0.387-6.931-1.048v22.604H90.633V126.102z M108.016,160.862
		c8.357,0,12.631-5.509,12.631-14.152c0-9.596-5.317-14.153-13.391-14.153c-1.997,0-3.608,0.286-5.319,0.762v26.403
		C103.929,160.483,105.642,160.862,108.016,160.862z"/>
	<linearGradient id="SVGID_2_" gradientUnits="userSpaceOnUse" x1="153.8374" y1="184.7666" x2="153.8374" y2="138.8502">
		<stop  offset="0" style="stop-color:#006CB7"/>
		<stop  offset="1" style="stop-color:#00A5E2"/>
	</linearGradient>
	<path fill="url(#SVGID_2_)" d="M162.149,165.041c-3.232,2.941-7.314,5.227-12.919,5.227c-8.547,0-14.91-5.702-14.91-14.346
		c0-6.077,2.944-9.877,7.598-12.251c3.133-1.616,7.028-2.378,11.588-2.567l7.695-0.286v-1.422c0-5.223-3.419-7.504-8.644-7.504
		c-4.463,0-8.549,1.427-11.779,3.136l-3.703-7.314c5.317-2.945,11.112-4.465,17.383-4.465c12.059,0,18.043,5.509,18.043,16.337
		v18.239c0,5.222,0.191,9.115,0.854,11.492h-9.496L162.149,165.041z M155.122,148.607c-2.946,0.097-5.035,0.572-6.554,1.427
		c-1.9,1.044-2.754,2.849-2.754,5.13c0,3.893,2.563,6.17,6.647,6.17c4.179,0,7.219-2.088,8.741-3.325v-9.591L155.122,148.607z"/>
	<linearGradient id="SVGID_3_" gradientUnits="userSpaceOnUse" x1="198.2354" y1="184.7637" x2="198.2354" y2="138.8496">
		<stop  offset="0" style="stop-color:#006CB7"/>
		<stop  offset="1" style="stop-color:#00A5E2"/>
	</linearGradient>
	<path fill="url(#SVGID_3_)" d="M177.435,126.102c4.938-1.713,10.828-2.854,17.001-2.854c16.147,0,24.6,9.119,24.6,23.462
		c0,13.773-9.309,23.558-23.365,23.558c-2.375,0-4.749-0.387-6.933-1.048v22.604h-11.304V126.102z M194.817,160.862
		c8.358,0,12.631-5.509,12.631-14.152c0-9.596-5.319-14.153-13.393-14.153c-1.995,0-3.608,0.286-5.317,0.762v26.403
		C190.733,160.483,192.441,160.862,194.817,160.862z"/>
	<linearGradient id="SVGID_4_" gradientUnits="userSpaceOnUse" x1="242.9233" y1="184.7666" x2="242.9233" y2="138.8502">
		<stop  offset="0" style="stop-color:#006CB7"/>
		<stop  offset="1" style="stop-color:#00A5E2"/>
	</linearGradient>
	<path fill="url(#SVGID_4_)" d="M222.832,146.898c0-13.487,7.407-23.65,20.238-23.65c12.634,0,19.945,9.119,19.945,24.034v2.655
		h-28.789c0.191,6.936,5.136,11.396,12.644,11.396c4.558,0,8.167-1.233,11.396-3.034l3.418,7.785
		c-4.748,2.945-10.35,4.183-15.858,4.183C229.382,170.268,222.832,159.057,222.832,146.898z M251.524,142.055
		c-0.189-5.125-2.66-10.163-8.644-10.163c-5.612,0-8.75,4.747-8.75,10.163H251.524z"/>
	<linearGradient id="SVGID_5_" gradientUnits="userSpaceOnUse" x1="282.5312" y1="184.7686" x2="282.5312" y2="138.8511">
		<stop  offset="0" style="stop-color:#006CB7"/>
		<stop  offset="1" style="stop-color:#00A5E2"/>
	</linearGradient>
	<path fill="url(#SVGID_5_)" d="M267.762,124.389h9.595l1.233,5.037c4.082-4.086,7.789-6.178,12.347-6.178
		c2.088,0,4.562,0.572,6.363,1.806l-3.989,9.595c-1.995-1.237-3.796-1.523-5.135-1.523c-2.941,0-5.407,1.237-9.11,4.465v31.727
		h-11.304V124.389z"/>
	<linearGradient id="SVGID_6_" gradientUnits="userSpaceOnUse" x1="334.7188" y1="184.7617" x2="334.7188" y2="138.8506">
		<stop  offset="0" style="stop-color:#006CB7"/>
		<stop  offset="1" style="stop-color:#00A5E2"/>
	</linearGradient>
	<path fill="url(#SVGID_6_)" d="M299.669,124.389h11.493l9.498,30.489h0.189l9.498-30.489h8.834l9.877,30.489h0.189l9.309-30.489
		h11.211l-16.623,45.21h-8.357l-9.877-30.485h-0.193l-10.066,30.485h-8.741L299.669,124.389z"/>
	<linearGradient id="SVGID_7_" gradientUnits="userSpaceOnUse" x1="394.2168" y1="184.7676" x2="394.2168" y2="138.8535">
		<stop  offset="0" style="stop-color:#006CB7"/>
		<stop  offset="1" style="stop-color:#00A5E2"/>
	</linearGradient>
	<path fill="url(#SVGID_7_)" d="M373.938,102.071h11.304v27.258c4.082-3.422,9.208-6.081,14.91-6.081
		c7.12,0,14.342,3.514,14.342,16.337v29.731H403.19v-26.214c0-5.513-1.141-9.978-6.936-9.978c-3.8,0-7.692,1.995-11.013,4.751v31.44
		h-11.304V102.071z"/>
	<linearGradient id="SVGID_8_" gradientUnits="userSpaceOnUse" x1="425.3115" y1="184.7676" x2="425.3115" y2="138.8523">
		<stop  offset="0" style="stop-color:#006CB7"/>
		<stop  offset="1" style="stop-color:#00A5E2"/>
	</linearGradient>
	<path fill="url(#SVGID_8_)" d="M418.332,110.332c0-3.8,2.941-6.838,6.936-6.838c3.989,0,7.023,2.945,7.023,6.838
		c0,3.704-3.034,6.742-7.023,6.742C421.273,117.074,418.332,114.133,418.332,110.332z M419.616,124.389h11.396v44.928h-11.396
		V124.389z"/>
	<linearGradient id="SVGID_9_" gradientUnits="userSpaceOnUse" x1="453.2363" y1="184.7656" x2="453.2363" y2="138.8523">
		<stop  offset="0" style="stop-color:#006CB7"/>
		<stop  offset="1" style="stop-color:#00A5E2"/>
	</linearGradient>
	<path fill="url(#SVGID_9_)" d="M444.302,158.202v-24.98h-8.067v-8.833h8.067v-10.445l11.308-3.325v13.771h13.581l-2.753,8.833
		h-10.828v22.225c0,4.179,1.423,5.698,4.369,5.698c2.655,0,5.13-1.044,6.838-2.185l3.422,7.79
		c-3.228,2.188-8.645,3.518-13.109,3.518C449.15,170.268,444.302,165.706,444.302,158.202z"/>
	<linearGradient id="SVGID_10_" gradientUnits="userSpaceOnUse" x1="490.9121" y1="184.7666" x2="490.9121" y2="138.8502">
		<stop  offset="0" style="stop-color:#006CB7"/>
		<stop  offset="1" style="stop-color:#00A5E2"/>
	</linearGradient>
	<path fill="url(#SVGID_10_)" d="M470.823,146.898c0-13.487,7.402-23.65,20.229-23.65c12.629,0,19.947,9.119,19.947,24.034v2.655
		h-28.78c0.185,6.936,5.125,11.396,12.629,11.396c4.558,0,8.173-1.233,11.396-3.034l3.425,7.785
		c-4.751,2.945-10.36,4.183-15.865,4.183C477.375,170.268,470.823,159.057,470.823,146.898z M499.503,142.055
		c-0.193-5.125-2.659-10.163-8.644-10.163c-5.602,0-8.732,4.747-8.732,10.163H499.503z"/>
</g>
</svg>
